<svg width="26" height="26" viewBox="0 0 26 26" fill="none" xmlns="http://www.w3.org/2000/svg">
<path d="M13 26C20.1797 26 26 20.1797 26 13C26 5.8203 20.1797 0 13 0C5.8203 0 0 5.8203 0 13C0 20.1797 5.8203 26 13 26Z" fill="#FFB836"/>
<path d="M3.922 20.0568C4.06681 19.7551 4.30832 19.6523 4.63662 19.6669C5.04748 19.6853 5.45974 19.6712 5.89229 19.6712V16.4249C6.54702 16.5564 7.12202 16.3103 7.69231 16.1147C8.71401 15.7644 9.71402 15.7597 10.731 16.1185C11.5282 16.3999 12.3485 16.5658 13.2037 16.5305C13.9414 16.4998 14.6414 16.3037 15.3353 16.0789C16.066 15.8422 16.8037 15.7437 17.5575 15.9327C18.0127 16.0468 18.4636 16.1826 18.9113 16.3235C19.2697 16.4362 19.6297 16.4965 20.0183 16.4282V19.6712C20.0943 19.6712 20.1556 19.6712 20.2174 19.6712C20.6174 19.6712 21.0179 19.6698 21.4179 19.6717C21.7594 19.6735 21.9995 19.8937 22 20.2015C22 20.5113 21.7641 20.7296 21.4188 20.7296C15.782 20.73 10.1447 20.7296 4.50785 20.7324C4.21351 20.7324 4.04228 20.5829 3.92294 20.3392V20.0568H3.922Z" fill="white"/>
<path d="M12.964 12.521C15.0998 12.521 17.2357 12.52 19.3715 12.5233C19.5286 12.5233 19.6918 12.5351 19.8414 12.5776C20.2447 12.6921 20.4621 12.9924 20.4654 13.412C20.4687 13.8061 20.4673 14.1998 20.4659 14.5939C20.464 15.1488 20.0178 15.5066 19.4715 15.376C19.1409 15.2968 18.8116 15.2034 18.4904 15.0912C17.2956 14.6735 16.1083 14.6825 14.913 15.0983C14.2229 15.3387 13.5154 15.5042 12.772 15.4722C12.1526 15.4458 11.5672 15.2775 10.9847 15.0917C10.2498 14.8574 9.50166 14.6858 8.73043 14.8065C8.20496 14.8885 7.6908 15.0446 7.17335 15.1737C6.93419 15.2336 6.7007 15.3175 6.46108 15.3741C5.90353 15.5056 5.4573 15.1535 5.45588 14.5877C5.45494 14.1936 5.45305 13.7995 5.45635 13.4059C5.4606 12.9453 5.76201 12.6044 6.22145 12.5403C6.33183 12.5248 6.4441 12.5215 6.55589 12.5215C8.69175 12.5205 10.8276 12.5205 12.9635 12.5205L12.964 12.521Z" fill="white"/>
<path d="M14.0117 11.2715H11.9037C11.9004 11.2051 11.8952 11.148 11.8952 11.0905C11.8952 9.90909 11.8943 8.72768 11.8952 7.54579C11.8952 7.12857 12.0636 6.96357 12.4858 6.9631C12.8386 6.9631 13.1914 6.95886 13.5443 6.96499C13.8296 6.9697 14.023 7.15827 14.024 7.44302C14.0278 8.70081 14.0249 9.95859 14.024 11.2169C14.024 11.2282 14.0188 11.2395 14.0112 11.2711L14.0117 11.2715Z" fill="white"/>
<path d="M9.74889 11.272H7.6352C7.63237 11.2074 7.62765 11.1504 7.62765 11.0933C7.62765 9.91145 7.62718 8.73003 7.62765 7.54815C7.62765 7.13281 7.79841 6.96404 8.21822 6.96357C8.55926 6.96357 8.90077 6.96121 9.24181 6.96404C9.56351 6.96687 9.75833 7.14318 9.75927 7.45952C9.76399 8.70599 9.76069 9.95246 9.76021 11.1985C9.76021 11.2159 9.75503 11.2329 9.74889 11.2715V11.272Z" fill="white"/>
<path d="M18.2825 11.2725H16.1688C16.1655 11.2013 16.1603 11.1386 16.1603 11.0759C16.1598 9.90583 16.1594 8.7362 16.1603 7.5661C16.1603 7.12578 16.3249 6.96408 16.7688 6.96408C17.116 6.96408 17.4631 6.95983 17.8098 6.96596C18.0938 6.97068 18.2915 7.16161 18.2924 7.44258C18.2962 8.68906 18.2943 9.93553 18.2938 11.1815C18.2938 11.2093 18.2872 11.2376 18.2825 11.272V11.2725Z" fill="white"/>
<path d="M7.62302 4.90396C7.65887 4.79459 7.70745 4.5749 7.80038 4.37596C7.98717 3.9776 8.19142 3.58678 8.4018 3.20067C8.54142 2.94421 8.84472 2.93384 8.97774 3.18747C9.23105 3.67022 9.49378 4.1525 9.6919 4.65882C9.93907 5.29148 9.5485 5.92886 8.88623 6.05851C8.23812 6.18532 7.62302 5.67759 7.62302 4.90396Z" fill="white"/>
<path d="M18.3027 5.0487C18.2668 5.4744 18.0678 5.80205 17.6654 5.98119C17.2565 6.16317 16.865 6.10612 16.5286 5.81478C16.1999 5.53003 16.0432 5.14958 16.2083 4.73755C16.4263 4.19493 16.6975 3.67258 16.9664 3.15212C17.0668 2.95741 17.3598 2.94799 17.473 3.13326C17.8051 3.67399 18.1164 4.22746 18.2838 4.84692C18.3003 4.90821 18.2961 4.97515 18.3022 5.0487H18.3027Z" fill="white"/>
<path d="M14.0362 5.02702C14.0041 5.47677 13.7985 5.8063 13.3886 5.98544C12.9782 6.16459 12.5876 6.1 12.2536 5.80771C11.9249 5.51967 11.7805 5.13545 11.9447 4.72624C12.1602 4.18881 12.4296 3.67259 12.697 3.15778C12.8027 2.95459 13.0966 2.94799 13.2145 3.14222C13.5381 3.67447 13.8433 4.21757 14.0126 4.82336C14.0315 4.8903 14.0296 4.9629 14.0362 5.02702Z" fill="white"/>
</svg>
