<svg width="26" height="26" viewBox="0 0 26 26" fill="none" xmlns="http://www.w3.org/2000/svg">
<path d="M13 26C20.1797 26 26 20.1797 26 13C26 5.8203 20.1797 0 13 0C5.8203 0 0 5.8203 0 13C0 20.1797 5.8203 26 13 26Z" fill="#FF3636"/>
<path d="M7.61196 10.872V7.31415C7.61196 4.33827 10.0243 1.92596 13.0001 1.92596V5.0121C11.6856 5.0121 10.6197 6.07798 10.6197 7.39256V10.872H7.61196Z" fill="white"/>
<path d="M18.3882 10.872V7.31415C18.3882 4.33827 15.9759 1.92596 13 1.92596V5.0121C14.3146 5.0121 15.3805 6.07798 15.3805 7.39256V10.872H18.3882Z" fill="#E9EDF5"/>
<path d="M13 10.8719V23.241H10.5681C7.91807 23.241 5.77039 21.0933 5.77039 18.4433V10.8719H13Z" fill="white"/>
<path d="M13 10.8719V23.241H15.4319C18.0819 23.241 20.2296 21.0933 20.2296 18.4433V10.8719H13Z" fill="#EAEAEA"/>
<path d="M11.8412 17.1802C12.1548 17.4424 12.5591 17.6004 13.0002 17.6004V20.1389H11.3377L11.8424 17.1814L11.8412 17.1802Z" fill="#FF8B8B"/>
<path d="M14.159 17.1802C13.8453 17.4424 13.4411 17.6004 13 17.6004V20.1389H14.6625L14.1578 17.1814L14.159 17.1802Z" fill="#FF3636"/>
<path d="M13 13.985V17.5992C12.5589 17.5992 12.1546 17.4412 11.841 17.179C11.444 16.847 11.1917 16.3483 11.1917 15.7921C11.1917 14.8622 11.8924 14.0977 12.7954 13.996C12.8628 13.9887 12.9301 13.9838 13 13.9838V13.985Z" fill="#FF8B8B"/>
<path d="M14.8071 15.7921C14.8071 16.7906 13.9973 17.5992 13 17.5992V13.985C13.9973 13.985 14.8071 14.7936 14.8071 15.7921Z" fill="#FF3636"/>
</svg>
