<svg width="188" height="189" viewBox="0 0 188 189" fill="none" xmlns="http://www.w3.org/2000/svg">
<path d="M91.4535 153.545C92.2883 153.511 93.119 153.478 93.9538 153.449C94.0247 154.676 94.0498 155.903 94.0915 157.134C95.4147 157.093 96.742 157.059 98.0693 157.059C98.0067 155.836 97.9733 154.613 97.9149 153.39C98.7831 153.361 99.6513 153.315 100.524 153.269C100.578 156.897 100.632 160.524 100.774 164.147C99.9351 164.176 99.0961 164.214 98.2571 164.255C98.2238 162.636 98.1778 161.016 98.1528 159.401C96.8171 159.409 95.4814 159.434 94.1458 159.468C94.1458 161.079 94.2084 162.69 94.2877 164.297C93.4237 164.322 92.5638 164.347 91.704 164.368C91.6456 160.757 91.5579 157.151 91.4535 153.545ZM81.5654 153.052C83.8861 151.783 86.8288 152.514 88.6653 154.296C88.4483 155.219 88.2354 156.141 88.0518 157.072C86.9832 155.561 85.1007 154.375 83.2057 155.006C80.7014 155.761 80.3174 159.81 82.6715 160.995C84.2993 161.859 86.1442 161.129 87.5258 160.144C87.363 161.179 87.2086 162.214 87.0249 163.249C84.1825 164.593 80.3174 163.437 79.0192 160.49C77.767 157.84 78.9358 154.363 81.5654 153.052ZM103.541 152.81C105.641 152.38 107.728 151.896 109.84 151.537C110.011 152.272 110.182 153.002 110.349 153.745C109.059 153.991 107.774 154.259 106.484 154.496C106.576 155.027 106.672 155.557 106.772 156.091C108.053 155.803 109.335 155.527 110.62 155.281C110.792 156.041 110.975 156.805 111.155 157.569C109.861 157.827 108.559 158.078 107.269 158.362C107.432 159.1 107.59 159.843 107.749 160.586C109.03 160.328 110.316 160.069 111.597 159.789C111.743 160.565 111.902 161.346 112.056 162.127C109.948 162.519 107.853 162.974 105.758 163.433C104.998 159.898 104.276 156.354 103.541 152.81ZM115.646 151.808C115.905 152.518 116.172 153.223 116.456 153.925C116.831 153.474 117.841 153.107 117.503 152.414C117.387 151.487 116.276 151.904 115.646 151.808ZM112.503 150.698C114.122 150.201 115.659 149.204 117.399 149.287C119.891 149.667 120.964 153.177 119.081 154.876C120.709 155.882 122.303 156.942 123.931 157.957C123.101 158.27 122.287 158.633 121.435 158.892C119.883 158.403 118.647 157.222 117.24 156.429C117.708 157.598 118.171 158.771 118.622 159.948C117.875 160.248 117.124 160.549 116.376 160.849C115.066 157.473 113.755 154.096 112.503 150.698ZM71.744 149.588C73.9645 148.945 76.6902 150.51 76.686 152.985C75.9722 153.098 75.2585 153.215 74.5447 153.34C74.3026 152.422 73.1882 151.12 72.3075 152.184C72.2824 153.587 73.8477 154.313 74.4821 155.448C76.1183 157.377 74.3193 160.657 71.8734 160.582C69.5276 160.757 67.2069 158.75 67.641 156.291C68.4048 156.208 69.1686 156.129 69.9325 156.037C69.7655 157.335 70.8967 158.687 72.2407 157.986C72.3242 157.794 72.4869 157.41 72.5704 157.218C71.7982 155.699 70.1078 154.772 69.6862 153.056C69.4525 151.616 70.3123 150.022 71.744 149.588ZM61.2047 146.24C61.5761 145.56 61.9435 144.888 62.3108 144.212C64.5564 145.51 66.8521 146.72 69.1185 147.981C68.7512 148.645 68.3923 149.312 68.0333 149.98C67.2611 149.563 66.4931 149.141 65.7251 148.724C64.3435 151.228 62.9619 153.728 61.6054 156.25C60.8624 155.824 60.1194 155.406 59.3765 154.989C60.804 152.514 62.1355 149.984 63.5421 147.497C62.7574 147.083 61.9768 146.666 61.2047 146.24ZM131.895 140.15C132.563 139.629 133.227 139.115 133.899 138.602C136.078 141.478 138.269 144.35 140.46 147.217C139.801 147.743 139.137 148.273 138.478 148.803C137.526 147.488 136.549 146.19 135.531 144.926C134.479 145.735 133.427 146.545 132.371 147.342C133.352 148.615 134.316 149.901 135.285 151.186C134.613 151.696 133.936 152.201 133.26 152.71C131.19 149.755 128.873 146.983 126.753 144.066C127.404 143.548 128.064 143.043 128.723 142.534C129.466 143.506 130.23 144.462 130.939 145.46C132.008 144.654 133.072 143.844 134.145 143.047C133.39 142.087 132.642 141.119 131.895 140.15ZM48.4531 144.178C49.7512 141.674 51.8925 139.741 53.5329 137.467C54.1798 138.001 54.831 138.531 55.4821 139.061C54.0045 140.985 52.3433 142.776 50.9742 144.779C49.9975 146.432 52.5144 148.561 53.9461 147.23C55.7326 145.552 56.9639 143.373 58.6502 141.599C59.3013 142.112 59.9525 142.634 60.5911 143.164C59.0384 145.038 57.5816 146.992 55.9955 148.837C54.8727 150.172 52.84 150.665 51.2998 149.759C49.3338 148.786 47.347 146.47 48.4531 144.178ZM39.2704 137.846C42.0043 135.476 44.7132 133.08 47.4639 130.726C48.8914 132.324 50.2605 133.969 51.688 135.563C51.137 136.064 50.5777 136.565 50.0267 137.074C49.1502 136.085 48.2778 135.092 47.4055 134.102C47.0089 134.453 46.6082 134.804 46.2117 135.158C47.0632 136.135 47.9147 137.116 48.7787 138.084C48.1902 138.606 47.61 139.136 47.034 139.666C46.1783 138.665 45.3101 137.671 44.4878 136.648C43.8951 137.149 43.3108 137.654 42.7222 138.164C43.5863 139.157 44.4461 140.159 45.2976 141.165C44.7132 141.678 44.1247 142.192 43.5445 142.713C42.1254 141.085 40.7271 139.441 39.2704 137.846ZM142.522 133.096C140.452 133.76 139.792 136.728 141.349 138.243C142.777 140.021 145.978 139.558 146.742 137.371C147.79 134.92 145.027 132.028 142.522 133.096ZM142.481 130.559C145.219 129.816 148.282 131.498 149.126 134.207C150.332 137.446 147.94 141.369 144.509 141.783C141.558 142.359 138.457 140.096 138.081 137.124C137.534 134.236 139.621 131.181 142.481 130.559ZM34.9586 127.169C35.6682 128.188 36.2526 129.657 37.6759 129.782C39.1702 129.849 40.7146 128.897 41.3615 127.549C41.7121 126.239 40.8064 125.082 40.2679 123.968C38.5023 125.041 36.7409 126.126 34.9586 127.169ZM31.6487 126.209C34.7583 124.369 37.8428 122.486 40.9566 120.65C41.9668 122.424 43.2482 124.097 43.82 126.084C44.7299 130.379 38.8822 134.102 35.3593 131.485C33.6396 130.125 32.9134 127.946 31.6487 126.209ZM144.63 125.913C145.703 124.043 146.784 122.181 147.811 120.286C148.47 120.666 149.126 121.046 149.789 121.422C149.146 122.561 148.508 123.705 147.823 124.819C148.295 125.091 148.767 125.366 149.242 125.646C149.873 124.486 150.528 123.333 151.179 122.181C151.847 122.578 152.519 122.962 153.195 123.346C152.544 124.49 151.876 125.621 151.208 126.752C152.586 127.52 153.951 128.309 155.316 129.106C154.886 129.816 154.46 130.529 154.059 131.26C150.866 129.569 147.794 127.658 144.63 125.913ZM45.8277 96.5574C46.4788 96.4697 47.1341 96.4655 47.7811 96.5657C47.7435 97.317 47.6976 98.2353 46.7794 98.3981C45.8319 98.2269 45.8611 97.3128 45.8277 96.5574ZM154.798 91.4943C155.591 91.3482 156.405 91.4108 157.211 91.39C157.219 93.6898 157.215 95.9939 157.206 98.2979C156.618 98.2979 156.029 98.2979 155.445 98.3021C155.428 96.549 155.432 94.7918 155.437 93.0387C154.911 93.0512 154.385 93.0595 153.863 93.0637C154.168 92.5378 154.452 91.9952 154.798 91.4943ZM149.919 91.4108C150.724 91.415 151.53 91.415 152.339 91.415C152.319 93.7107 152.356 96.0064 152.314 98.3021C151.726 98.3021 151.137 98.3104 150.553 98.3188C150.553 96.549 150.566 94.7834 150.536 93.0178C150.161 93.0303 149.414 93.0595 149.042 93.0721C149.334 92.5169 149.626 91.9618 149.919 91.4108ZM145.331 97.3295C146.609 96.0231 146.492 93.7524 145.34 92.3959C144.2 93.7608 144.175 95.9688 145.331 97.3295ZM144.259 91.5068C145.695 90.7346 147.519 91.7531 147.807 93.3016C148.14 94.917 148.195 97.0248 146.68 98.0809C145.444 98.9866 143.578 98.3188 143.107 96.8871C142.447 95.1298 142.518 92.6088 144.259 91.5068ZM137.392 91.6195C138.766 90.8557 141.036 91.2731 141.383 93.0136C141.646 94.6206 140.172 95.7142 139.254 96.8036C139.939 96.7827 140.631 96.7577 141.32 96.7285C141.337 97.2502 141.354 97.7762 141.37 98.3021C139.584 98.2729 137.797 98.2812 136.011 98.3021C137.192 96.5949 139.05 95.2968 139.73 93.2975C139.15 92.0536 138.102 92.9886 137.793 93.8568C137.38 93.8484 136.562 93.8359 136.153 93.8317C136.432 93.0387 136.562 92.0411 137.392 91.6153M41.3657 91.4066C42.9894 91.415 44.6131 91.4192 46.2367 91.4108C46.2409 91.9618 46.2451 92.5128 46.2493 93.0679C45.7233 93.0637 45.2016 93.0554 44.6798 93.047C44.684 94.7291 44.6715 96.4071 44.6924 98.0892C44.0704 98.085 43.4485 98.085 42.8266 98.085C42.8349 96.3904 42.8266 94.6999 42.8308 93.0095C42.3424 93.0303 41.8541 93.0512 41.3657 93.0762V91.4066ZM37.1458 91.536C38.1809 90.8765 39.4248 91.344 40.4349 91.8074C40.293 92.1413 40.005 92.8091 39.8631 93.143C39.0324 92.6672 38.1809 92.3708 37.5215 93.31C38.3896 93.7483 39.3538 93.982 40.1803 94.5037C41.2989 95.614 40.6102 97.7762 39.1034 98.1518C37.918 98.6026 36.7201 98.0391 35.7183 97.4255C35.9854 96.933 36.2567 96.4488 36.5239 95.9563C37.1875 96.6534 39.1911 97.4339 38.9782 95.7977C38.2352 95.3469 37.342 95.205 36.6157 94.7208C35.6682 93.8359 36.0146 92.1037 37.1458 91.536ZM30.7972 91.4066C32.1954 91.4233 33.5979 91.4233 34.9962 91.4066C34.9878 91.9117 34.9795 92.4209 34.9711 92.9302C34.1781 92.926 33.385 92.926 32.592 92.9302C32.6128 93.214 32.6504 93.7775 32.6713 94.0571C33.385 94.0488 34.0988 94.0363 34.8167 94.0279C34.8167 94.3869 34.8251 95.1132 34.8251 95.4763C34.0988 95.4596 33.3725 95.4429 32.6421 95.4304C32.6462 95.7225 32.6546 96.3069 32.6546 96.5949C33.4393 96.5949 34.224 96.5824 35.0045 96.5866C35.0004 96.9581 34.992 97.7052 34.9878 98.0767C33.5854 98.0767 32.1871 98.0683 30.7846 98.0934C30.8055 95.8645 30.7805 93.6356 30.7972 91.4066ZM173.506 89.3781C176.999 88.6059 180.677 91.4108 180.852 94.9838C181.203 98.4857 178.076 101.867 174.533 101.641C171.402 101.658 168.551 98.949 168.501 95.8019C168.238 92.8008 170.538 89.8664 173.506 89.3781ZM10.7203 89.4532C14.5854 88.3304 18.7636 91.9075 18.3378 95.8853C18.2251 99.5167 14.4017 102.384 10.8831 101.512C7.74005 100.953 5.51532 97.6718 6.01202 94.5497C6.4002 92.1287 8.29937 89.975 10.7203 89.4532ZM93.5071 123.893C93.4863 124.853 93.4863 125.813 93.4905 126.777C93.9037 126.777 94.7301 126.764 95.1434 126.76C95.1392 125.813 95.135 124.865 95.1225 123.922C94.7176 123.914 93.912 123.901 93.5071 123.893ZM73.8059 110.252C77.3413 115.47 82.3167 120.391 88.7864 121.447C91.2031 121.989 93.6365 120.975 96.0533 121.493C98.6954 121.877 101.4 121.267 103.834 120.236C108.446 118.199 111.99 114.372 114.753 110.244C110.858 109.689 106.847 109.501 102.974 110.298C99.7013 110.974 96.3914 112.364 94.271 115.056C93.2233 113.746 91.9503 112.598 90.4017 111.909C85.2635 109.463 79.3323 109.405 73.8059 110.252ZM102.732 101.888C103.537 103.653 104.151 105.502 104.635 107.385C107.624 106.988 110.65 107.134 113.634 107.506C115.379 104.075 115.913 100.21 116.189 96.4154C111.33 97.1208 106.797 99.1953 102.732 101.888ZM72.4243 96.4113C72.6163 100.189 73.2091 104.041 74.958 107.439C77.9507 107.209 80.9643 106.955 83.9612 107.372C84.4371 105.481 85.1216 103.649 85.8145 101.829C81.7616 99.1744 77.2453 97.1375 72.4243 96.4113ZM94.2793 94.4495C90.4852 98.0433 87.8472 102.735 86.5115 107.773C89.3081 108.416 92.0087 109.526 94.2919 111.287C96.5583 109.513 99.284 108.432 102.064 107.769C100.787 102.714 98.0902 98.0182 94.2793 94.4495ZM98.1403 94.6624C99.405 96.1984 100.561 97.8221 101.58 99.5376C105.011 97.2168 108.83 95.4512 112.854 94.4411C113.659 91.2188 113.96 87.8922 113.776 84.578C107.736 86.185 101.429 89.0609 98.1403 94.6624ZM74.791 84.5864C74.6491 87.888 74.9371 91.2105 75.7343 94.4203C79.7539 95.4638 83.6273 97.1751 87.0166 99.5877C87.9724 97.8137 89.1954 96.2067 90.4727 94.654C87.1376 89.0692 80.86 86.1683 74.791 84.5864ZM87.7554 87.6542C89.5001 89.136 91.128 90.7889 92.351 92.734C93.023 92.2289 93.6031 91.5444 94.3879 91.2146C95.0473 91.6738 95.6275 92.2248 96.2328 92.7465C97.4516 90.7847 99.0669 89.1235 100.841 87.6542C99.0502 84.4528 97.2303 81.1094 94.2585 78.8388C91.3951 81.1971 89.4959 84.4361 87.7554 87.6542ZM98.8999 79.7946C100.407 81.844 101.863 83.9394 102.97 86.2351C104.597 85.225 106.371 84.5029 108.066 83.6305C108.396 80.4207 108.312 77.1149 107.448 73.9886C104.168 75.1907 101.463 77.4864 98.8999 79.7946ZM81.1563 73.9969C80.2255 77.1441 80.3132 80.4499 80.5093 83.6931C82.2749 84.4152 83.9738 85.2792 85.6267 86.2309C86.7954 83.977 88.0977 81.7856 89.7047 79.8113C87.1794 77.4572 84.412 75.2408 81.1563 73.9969ZM87.3756 74.4728C88.7864 75.5497 90.1471 76.6892 91.4452 77.9038C92.3301 77.0982 93.2859 76.3636 94.3795 75.8627C95.3646 76.4512 96.2745 77.1567 97.1469 77.9038C98.4575 76.7059 99.8516 75.6039 101.191 74.4394C99.8892 70.303 97.3096 66.7092 94.3044 63.6371C91.2741 66.705 88.6862 70.3238 87.3756 74.4728ZM85.1675 73.0328C86.8663 67.9614 90.264 63.5954 94.3086 60.1685C98.3072 63.6371 101.722 67.9697 103.429 73.0286C105.082 72.1437 106.81 71.3465 108.675 71.0626C111.067 74.4477 110.879 78.8179 110.725 82.7665C112.428 82.2614 114.152 81.8315 115.892 81.4726C116.785 85.5672 116.543 89.8372 115.6 93.9027C116.623 93.7816 117.649 93.6773 118.68 93.5771C118.91 98.4398 118.326 103.403 116.331 107.877C117.149 108.032 117.967 108.194 118.789 108.357C115.821 114.021 111.472 119.205 105.724 122.186C103.249 123.471 100.482 124.135 97.702 124.235C97.7062 125.934 97.7104 127.633 97.7062 129.331C95.4355 129.331 93.1691 129.315 90.8984 129.34C90.9151 127.641 90.9151 125.942 90.9109 124.243C85.3053 124.127 80.117 121.221 76.2686 117.285C73.6932 114.656 71.4059 111.688 69.8156 108.357C70.6295 108.19 71.4393 108.027 72.2574 107.886C70.3582 103.386 69.5401 98.4273 69.9325 93.5604C70.9426 93.6731 71.9527 93.7816 72.967 93.8985C72.0821 89.8205 71.7982 85.5589 72.6789 81.4559C74.4278 81.8065 76.1517 82.2781 77.8547 82.8166C77.7378 78.868 77.4999 74.4644 79.9208 71.0877C81.7866 71.3673 83.5063 72.1771 85.1675 73.0328ZM38.4063 64.426C40.3472 65.482 42.2088 66.6925 44.2416 67.5648C44.7884 66.5589 45.7275 65.3985 45.1223 64.2089C44.2416 62.8482 42.6179 61.8548 40.9733 61.93C39.6544 62.0927 39.0617 63.4493 38.4063 64.426ZM32.2956 60.9908C33.9026 62.0844 35.6974 62.8607 37.3628 63.8583C37.6508 63.1279 38.0223 62.41 38.1267 61.6211C38.0432 60.0976 36.5155 59.1835 35.2091 58.7702C33.719 58.2694 32.6254 59.7261 32.2956 60.9908ZM32.0535 58.5281C32.8215 57.2008 33.9235 55.8151 35.5639 55.6439C37.1667 55.3559 38.7695 56.4579 39.3246 57.9354C39.7754 59.2127 39.3371 60.54 39.0366 61.7964C39.9132 60.611 40.8773 59.2544 42.4175 58.9414C44.9303 58.3028 47.5641 60.7195 47.3512 63.2489C47.2761 64.8309 46.483 66.2417 45.7484 67.5982C44.7592 69.3763 43.7616 71.1503 42.7849 72.9326C42.5553 72.799 42.1045 72.5319 41.8791 72.3983C42.0628 71.864 42.2422 71.3214 42.4092 70.783C40.1678 69.3012 37.751 68.1033 35.4094 66.7885C33.769 65.962 32.2372 64.906 30.5092 64.259C30.0918 64.6305 29.7077 65.0312 29.3571 65.4695C29.0691 65.29 28.7853 65.1147 28.4973 64.9394C29.6493 62.7856 30.8347 60.6444 32.0535 58.5281ZM152.097 52.8223C152.423 52.6428 152.753 52.4633 153.082 52.288C153.863 53.6988 154.66 55.1055 155.462 56.5038C153.045 60.3564 150.624 64.2048 148.216 68.0574C151.225 66.1582 154.552 64.7557 157.386 62.5811C157.248 62.2221 156.977 61.4959 156.839 61.1327C157.081 61.0117 157.57 60.7696 157.816 60.6485C158.6 62.0218 159.368 63.4034 160.162 64.7724C159.89 64.9686 159.619 65.169 159.352 65.3693C158.997 64.9978 158.63 64.643 158.246 64.305C157.382 64.5303 156.622 65.0145 155.854 65.4486C152.227 67.544 148.545 69.5433 144.931 71.6595C144.534 70.9666 144.142 70.2696 143.754 69.5725C146.417 65.2733 149.159 61.0284 151.751 56.6916C148.416 58.7452 144.826 60.4023 141.633 62.6646C141.754 63.0152 142.001 63.7164 142.122 64.0629C141.896 64.209 141.441 64.5053 141.216 64.6514C140.439 63.2489 139.663 61.8506 138.874 60.4607C139.07 60.323 139.463 60.0475 139.655 59.9097C140.018 60.2896 140.402 60.6444 140.811 60.9741C142.881 60.1894 144.689 58.8537 146.659 57.8561C148.654 56.6206 150.87 55.7065 152.686 54.1956C152.49 53.7364 152.294 53.2773 152.097 52.8223ZM79.9793 52.6178C65.7209 57.3177 54.2675 69.6852 50.9033 84.3484C54.0755 85.0831 56.8595 87.3078 58.237 90.263C59.8982 93.6397 59.5017 97.868 57.3688 100.948C55.887 103.152 53.5537 104.642 51.0243 105.364C53.4076 114.915 59.1803 123.551 66.9815 129.54C74.8619 135.643 84.8378 139.14 94.8345 138.815C103.667 138.673 112.39 135.705 119.586 130.6C128.097 124.577 134.354 115.466 136.925 105.356C134.588 104.738 132.471 103.369 130.969 101.478C128.343 98.1977 127.892 93.3016 130.017 89.6536C131.474 86.9822 134.116 85.0914 137.038 84.3276C135.264 77.0022 131.624 70.1277 126.473 64.618C124.374 62.2263 121.773 60.3689 119.307 58.3821C108.116 50.3513 93.0021 48.1057 79.9793 52.6178ZM61.4384 62.0093C69.3481 54.0453 80.3048 49.12 91.5245 48.5941C101.242 47.9888 111.055 50.727 119.169 56.078C129.504 62.7731 136.942 73.7298 139.258 85.8344C135.113 86.018 131.211 89.1986 130.631 93.3809C129.954 96.9539 131.808 100.702 134.884 102.551C136.182 103.348 137.706 103.649 139.191 103.874C137.977 108.77 136.357 113.625 133.69 117.937C128.898 126.03 121.636 132.683 113.041 136.54C104.159 140.672 93.9329 141.62 84.3619 139.683C70.9008 136.878 59.0008 127.649 52.84 115.37C50.9784 111.738 49.7053 107.827 48.762 103.866C52.072 103.603 55.336 101.662 56.6425 98.5316C58.1702 95.2843 57.4105 91.152 54.8685 88.631C53.3116 86.8403 50.9784 86.0973 48.691 85.8427C50.5067 76.8937 54.9228 68.4288 61.4384 62.0093ZM42.8892 43.9609C43.0979 44.1028 43.507 44.3867 43.7157 44.5328C43.3901 45.1797 42.5553 46.0229 43.3483 46.6782C45.2642 48.544 47.3512 50.2344 49.3338 52.0293C50.6653 53.0644 51.7422 54.4919 53.3701 55.0721C53.7207 54.7006 54.0713 54.3291 54.4219 53.9535C54.6181 54.1538 55.0063 54.5587 55.2025 54.759C53.6205 56.5246 52.0469 58.2986 50.5109 60.1101C50.2396 59.9056 49.9683 59.701 49.7012 59.4965C50.1227 58.8245 50.8657 57.8603 49.9474 57.2342C47.3345 54.8634 44.659 52.5593 42.0252 50.2136C41.4617 49.7628 40.9233 49.1576 40.1761 49.049C39.7504 49.3329 39.3497 49.6501 38.9698 49.9923C38.7069 49.7711 38.4439 49.5541 38.1851 49.337C39.7378 47.5297 41.3114 45.7432 42.8892 43.9609ZM141.032 39.3236C143.524 41.8698 146.087 44.3491 148.562 46.9203C147.815 47.9805 147.072 49.0407 146.341 50.1092C146.008 49.7669 145.674 49.4289 145.344 49.0866C145.728 48.4062 146.166 47.7384 146.367 46.9704C145.874 45.7516 144.693 44.9794 143.829 44.0361C142.351 45.3509 140.953 46.7492 139.58 48.1683C140.227 48.7902 140.886 49.4038 141.566 49.9923C142.134 49.5624 142.689 49.12 143.236 48.6608C143.549 48.9864 143.862 49.3078 144.179 49.6334C142.794 50.9858 141.408 52.3381 140.06 53.7322C139.738 53.4275 139.421 53.127 139.104 52.8265C139.567 52.2797 140.043 51.7371 140.406 51.1151C139.968 50.297 139.25 49.6876 138.624 49.0198C137.184 50.6351 135.502 52.0126 134.124 53.6822C135.101 54.6589 135.982 55.7691 137.146 56.5372C138.098 56.6749 138.862 55.8526 139.676 55.4853C139.993 55.8359 140.31 56.1865 140.631 56.5372C139.496 57.23 138.482 58.3195 137.217 58.6701C134.512 56.1698 132.096 53.3816 129.399 50.8689C129.633 50.6101 129.867 50.3471 130.105 50.0883C130.555 50.4056 131.019 50.7144 131.486 51.0108C133.853 49.2577 135.71 46.9328 137.847 44.9251C139.004 43.7439 140.306 42.6795 141.203 41.2729C140.89 40.8847 140.581 40.5007 140.273 40.1167C140.46 39.9163 140.84 39.5198 141.032 39.3236ZM46.7334 40.1501C49.4799 37.942 52.3558 35.8884 55.1649 33.7472C56.1249 34.6488 57.0975 35.5378 58.0533 36.4394C57.6776 36.7149 57.302 36.9862 56.9263 37.2575C56.246 36.7525 55.599 36.1556 54.7684 35.9218C53.6038 36.406 52.6814 37.3034 51.6838 38.0506C52.7315 39.7369 54.0379 41.2478 55.1899 42.8632C55.8787 42.2913 56.5715 41.7237 57.2352 41.1268C56.918 40.4882 56.5841 39.8621 56.2418 39.2443C56.5841 38.9772 56.9263 38.7142 57.2728 38.4554C58.3956 40.0374 59.6269 41.5358 60.7622 43.1136C60.4199 43.3849 60.0819 43.6521 59.7479 43.9234C59.2345 43.3557 58.7044 42.8047 58.1493 42.283C57.4063 42.8006 56.6759 43.339 55.9496 43.8775C57.2561 45.5763 58.4999 47.3168 59.8481 48.9822C60.9751 48.2226 62.1563 47.488 63.0746 46.4695C63.4503 45.5262 62.7783 44.6037 62.5153 43.7188C62.8826 43.4267 63.2499 43.1345 63.613 42.8423C64.2016 44.0736 64.8068 45.2966 65.4454 46.5029C62.4443 48.7819 59.4432 51.0609 56.4338 53.3232C56.2293 52.9934 56.0289 52.6679 55.8286 52.3381C56.104 52.0793 56.6634 51.5576 56.9388 51.2988C55.7534 49.1534 54.1089 47.3126 52.6856 45.3258C51.3248 43.6437 50.2229 41.7278 48.595 40.2753C48.1234 40.5633 47.6517 40.8513 47.1842 41.1435C47.0715 40.8931 46.8461 40.3963 46.7334 40.1501ZM119.812 38.2551C120.98 35.2081 123.222 32.1235 126.607 31.4473C129.654 30.8421 132.659 32.5785 134.496 34.9243C133.924 36.2098 133.398 37.5121 132.893 38.8228C132.446 38.6558 132.008 38.4888 131.566 38.3219C131.945 37.1532 132.505 35.9051 132.196 34.6571C131.553 33.0919 129.462 32.7663 128.093 33.526C125.843 34.6905 124.436 36.9528 123.368 39.165C122.604 40.8847 121.849 42.8924 122.55 44.754C122.992 45.8476 124.257 46.0938 125.292 46.2691C125.997 45.1422 126.69 43.9985 127.25 42.788C126.899 42.475 126.553 42.1661 126.206 41.8531C126.402 41.5609 126.594 41.2645 126.795 40.9724C128.402 41.9532 130.034 42.9007 131.674 43.8315C131.495 44.1655 131.315 44.4952 131.14 44.8291C130.798 44.6496 130.443 44.4952 130.08 44.3742C129.337 45.5095 128.686 46.6991 127.959 47.8427C125.497 48.1391 122.892 47.5213 121.118 45.7098C118.989 43.9025 118.814 40.7052 119.812 38.2551ZM66.5432 29.3228C67.2736 31.3597 68.1126 33.3548 68.8973 35.3709C69.9492 34.8324 71.385 34.4526 71.7315 33.1587C72.0654 31.6351 71.385 29.9614 70.2163 28.9763C69.0852 28.1415 67.6576 28.8428 66.5432 29.3228ZM61.0961 30.0741C64.0138 29.0097 66.7936 27.5071 69.8365 26.8351C71.7565 26.33 74.0063 27.2483 74.7075 29.1767C75.655 31.0884 74.7659 33.3173 73.1924 34.5862C74.8912 35.8843 76.4815 37.3201 78.2053 38.589C78.7438 39.0648 79.47 39.0481 80.1504 39.0064C80.2631 39.3111 80.3841 39.6116 80.501 39.9122C79.1612 40.4381 77.8338 40.9891 76.5023 41.5275C74.4696 39.6826 72.3576 37.9295 70.3081 36.1013C69.9993 36.2516 69.6904 36.4018 69.3857 36.5521C70.2831 38.3302 70.6295 40.4214 71.9068 41.9825C72.3242 41.924 72.7416 41.8489 73.159 41.7612C73.3092 42.0743 73.4595 42.3832 73.6097 42.6962C71.5019 43.5602 69.3815 44.3909 67.2778 45.2674C67.1234 44.9418 66.9689 44.6162 66.8145 44.2948C67.2862 44.0194 67.7578 43.7439 68.2253 43.4684C67.5116 40.6635 66.1592 38.0756 65.1491 35.375C64.4186 33.7848 64.0847 31.9649 62.8868 30.625C62.5362 30.7503 61.8433 30.9924 61.4927 31.1134C61.3967 30.8546 61.1963 30.337 61.0961 30.0741ZM108.104 23.3707C111.535 24.3432 114.97 25.2907 118.392 26.2841C118.263 27.578 118.15 28.8761 118.046 30.1743C117.595 30.0616 117.144 29.9489 116.698 29.8362C116.673 29.0181 116.689 28.1874 116.531 27.3777C115.437 26.7015 114.152 26.3258 112.874 26.1923C112.044 27.9579 111.81 29.9447 111.176 31.7854C112.023 32.0233 112.874 32.2487 113.73 32.4616C114.081 31.7896 114.402 31.1009 114.694 30.4038C115.003 30.5123 115.621 30.7294 115.93 30.8379C115.4 32.6828 114.882 34.5319 114.348 36.3768C114.031 36.3058 113.396 36.1681 113.079 36.0971C113.196 35.4376 113.35 34.7865 113.388 34.1187C112.82 33.3423 111.685 33.3799 110.85 33.0293C110.299 35.0411 109.615 37.0196 109.201 39.0607C110.053 39.8663 111.439 39.8829 112.532 40.2503C113.86 40.5466 114.323 38.9605 114.928 38.1132C115.375 38.2551 115.817 38.3928 116.264 38.5348C115.671 39.7536 115.066 40.9682 114.481 42.1953C110.846 41.2478 107.26 40.1417 103.642 39.1525C103.738 38.8228 103.834 38.4972 103.934 38.1674C104.618 38.2092 105.649 38.5181 105.883 37.5914C106.726 35.0662 107.348 32.4658 108.104 29.9113C108.534 28.296 109.105 26.6931 109.176 25.0069C108.713 24.8107 108.245 24.6187 107.782 24.4308C107.861 24.1637 108.024 23.6378 108.104 23.3707ZM93.6658 30.0657C94.9221 30.0407 96.4957 30.1659 97.2721 28.9388C98.0318 27.4653 98.0818 25.3825 96.8338 24.1554C95.9573 23.5627 94.8595 23.642 93.8578 23.5543C93.6658 25.7164 93.7159 27.8953 93.6658 30.0657ZM88.3272 22.2186C90.9151 22.2312 93.503 22.2437 96.0908 22.3522C97.6311 22.4023 99.2798 22.8197 100.365 23.9801C101.818 25.562 101.713 28.2876 100.16 29.7694C99.526 30.3996 98.6745 30.7127 97.8731 31.055C99.1086 33.142 100.023 35.421 101.479 37.3786C102.193 37.5706 102.702 37.9754 102.69 38.781C101.208 38.7476 99.7306 38.7393 98.253 38.7518C97.0717 36.3518 95.9448 33.9183 94.6926 31.5558C94.4338 31.4849 93.912 31.343 93.6532 31.2762C93.6825 33.263 93.2901 35.2999 93.7284 37.2575C94.2084 37.4453 94.6967 37.6123 95.1934 37.7542C95.1308 38.084 95.0682 38.4095 95.0098 38.7393C92.76 38.5765 90.5061 38.6266 88.2563 38.5723C88.2438 38.326 88.2187 37.8419 88.2062 37.5998C88.8865 37.3911 90.0511 37.5121 90.001 36.502C90.1513 32.4699 90.2055 28.4295 90.2306 24.3975C90.289 23.1244 88.2187 23.5919 88.3272 22.2186ZM68.2378 17.0638C57.4856 20.4948 47.4806 26.2382 39.0825 33.7722C36.6282 36.189 34.2616 38.6934 31.8574 41.1602C21.9692 52.3715 15.5204 66.4546 12.9993 81.1595C18.1375 82.0527 22.7581 85.6841 24.4861 90.6512C26.356 95.7267 25.2708 101.867 21.414 105.74C19.3437 108.123 16.4094 109.622 13.3415 110.248C16.3385 126.13 24.1647 141.073 35.5847 152.518C44.4044 161.459 55.3611 168.233 67.2194 172.328C76.7402 175.546 86.8496 177.019 96.8923 176.619C118.017 175.959 138.649 166.538 153.137 151.178C156.125 147.747 159.222 144.375 161.664 140.514C167.792 131.435 171.995 121.092 174.078 110.34C168.777 109.551 164.022 105.744 162.274 100.652C160.399 95.4512 161.769 89.2195 165.759 85.3627C168.042 83.0295 171.139 81.5644 174.361 81.1094C172.6 70.8623 168.977 60.9324 163.58 52.0418C159.79 46.0312 155.387 40.3755 150.202 35.5044C140.381 26.0587 128.055 19.301 114.911 15.7823C99.6429 11.863 83.2517 12.176 68.2378 17.0638ZM37.6467 32.8289C53.1823 18.6624 74.2609 10.7861 95.2811 11.2536C101.333 11.5332 107.407 12.0174 113.288 13.5576C133.611 18.3577 151.868 31.176 163.376 48.5899C170.242 58.837 174.675 70.6536 176.528 82.8375C173.322 82.8541 170.071 83.881 167.691 86.0848C163.931 89.1527 162.39 94.5413 163.734 99.1703C165.149 104.705 170.567 108.683 176.244 108.67C174.412 119.205 170.763 129.478 165.074 138.56C155.132 155.018 139.233 167.695 121.072 173.964C111.576 177.174 101.517 178.785 91.4869 178.48C77.6001 178.109 63.7884 174.273 51.7756 167.277C40.4766 160.791 30.8055 151.575 23.6805 140.676C17.2484 131.076 13.2205 120.028 11.1502 108.695C15.4953 108.399 19.7194 106.041 21.8732 102.196C25.0704 96.8787 23.6096 89.3572 18.6634 85.6173C16.4637 83.8726 13.6838 83.0169 10.9081 82.8124C13.6838 63.7248 23.2673 45.6973 37.6467 32.8289ZM83.8152 3.07673C70.7464 4.5084 57.9823 8.77839 46.7376 15.6029C41.2238 18.8168 36.2651 22.8656 31.4817 27.0605C16.8352 40.5424 6.76334 58.8955 3.3198 78.509C0.3354 95.5264 2.16361 113.387 8.75016 129.377C13.5085 140.939 20.6126 151.541 29.5491 160.29C44.1456 174.669 63.6423 184.019 84.0489 186.123C92.7684 186.916 101.626 186.887 110.245 185.2C135.852 180.818 159.06 164.748 172.542 142.588C183.724 124.569 188.194 102.564 185.135 81.5978C182.05 58.8454 169.87 37.533 152.006 23.1494C136.466 10.4271 116.61 2.93898 96.4999 2.62176C92.2717 2.41306 88.0184 2.58837 83.8152 3.07673ZM92.2717 0.668335H96.9966C100.478 0.906252 103.955 1.26939 107.427 1.63253C120.233 3.53586 132.668 8.0229 143.649 14.8933C148.666 18.0947 153.396 21.7553 157.774 25.779C176.423 42.7755 187.526 67.64 187.914 92.855V97.6008C187.297 111.529 183.953 125.462 177.25 137.746C175.651 141.035 173.844 144.228 171.669 147.179C162.77 160.524 150.257 171.401 135.932 178.593C123.748 184.8 110.145 188.064 96.4999 188.498H90.9735C84.2659 188.11 77.55 187.396 71.0427 185.655C48.4156 180.008 28.1968 165.512 15.4536 145.998C5.9035 131.552 0.598361 114.409 0.0849609 97.1125V91.8783C0.226877 89.7412 0.435576 87.6083 0.564969 85.4671C2.43492 64.6806 11.7346 44.7164 26.2016 29.7109C38.014 17.4185 53.1447 8.21908 69.6695 3.90735C77.0199 1.83705 84.6499 0.89373 92.2717 0.668335Z" fill="black"/>
</svg>
